# xmcd CD database file
#
# Track frame offsets:
#	150
#	15867
#	33384
#	53191
#	72053
#	91652
#	111607
#	122634
#	143051
#	159003
#	178235
#	199104
#	218656
#	237928
#	254868
#	278862
#	298452
#	314199
#
# Disc length: 4361 seconds
#
# Revision: 0
# Processed by: cddbd v1.4PL0 Copyright (c) Steve Scherf et al.
# Submitted via: CDex 1.50
#
DISCID=11110712
DTITLE=Natalie Cole - Love SOngs
DYEAR=2001
DGENRE=Jazz
TTITLE0=Unforgettable (duet with Nat 'King' Cole
TTITLE1=Miss you like crazy
TTITLE2=Angel of my shoulder
TTITLE3=When I fall in love (duet with Nat 'King' Cole)
TTITLE4=A smile like yours
TTITLE5=I live for your love
TTITLE6=Inseparable
TTITLE7=Too young
TTITLE8=I can't say no
TTITLE9=Starting over again
TTITLE10=More than the stars
TTITLE11=I've got love on my mind
TTITLE12=The very thoughs of you
TTITLE13=As time goes by
TTITLE14=Our love
TTITLE15=Snowfall on the sahara
TTITLE16=Our love is here to stay
TTITLE17=This will be (an everlasting love)
EXTD=YEAR: 2001
EXTT0=
EXTT1=
EXTT2=
EXTT3=
EXTT4=
EXTT5=
EXTT6=
EXTT7=
EXTT8=
EXTT9=
EXTT10=
EXTT11=
EXTT12=
EXTT13=
EXTT14=
EXTT15=
EXTT16=
EXTT17=
PLAYORDER=
